<mxfile host="app.diagrams.net" agent="Mozilla/5.0 (Windows NT 10.0; Win64; x64) AppleWebKit/537.36 (KHTML, like Gecko) Chrome/134.0.0.0 Safari/537.36" version="26.2.6">
  <diagram name="Page-1" id="LZVNcxAKXwtIW9hXaq5z">
    <mxGraphModel dx="1044" dy="574" grid="1" gridSize="10" guides="1" tooltips="1" connect="1" arrows="1" fold="1" page="1" pageScale="1" pageWidth="850" pageHeight="1100" math="0" shadow="0">
      <root>
        <mxCell id="0" />
        <mxCell id="1" parent="0" />
        <mxCell id="bzr26xhQSar7KxV0sZk4-1" value="Background Processes" style="whiteSpace=wrap;strokeWidth=2;" vertex="1" parent="1">
          <mxGeometry x="20" y="1129" width="317" height="885" as="geometry" />
        </mxCell>
        <mxCell id="bzr26xhQSar7KxV0sZk4-2" value="Mulai Aplikasi" style="rounded=1;whiteSpace=wrap;arcSize=50;strokeWidth=2;" vertex="1" parent="1">
          <mxGeometry x="717" y="20" width="122" height="39" as="geometry" />
        </mxCell>
        <mxCell id="bzr26xhQSar7KxV0sZk4-3" value="Main Window" style="rhombus;strokeWidth=2;whiteSpace=wrap;" vertex="1" parent="1">
          <mxGeometry x="704" y="109" width="148" height="148" as="geometry" />
        </mxCell>
        <mxCell id="bzr26xhQSar7KxV0sZk4-4" value="Preview Camera Cards&#xa;Add Camera Button&#xa;Remove Camera Button" style="whiteSpace=wrap;strokeWidth=2;" vertex="1" parent="1">
          <mxGeometry x="786" y="307" width="260" height="126" as="geometry" />
        </mxCell>
        <mxCell id="bzr26xhQSar7KxV0sZk4-5" value="Klik Card Preview Camera" style="whiteSpace=wrap;strokeWidth=2;" vertex="1" parent="1">
          <mxGeometry x="807" y="683" width="245" height="54" as="geometry" />
        </mxCell>
        <mxCell id="bzr26xhQSar7KxV0sZk4-6" value="Klik Add Camera" style="whiteSpace=wrap;strokeWidth=2;" vertex="1" parent="1">
          <mxGeometry x="1114" y="505" width="177" height="54" as="geometry" />
        </mxCell>
        <mxCell id="bzr26xhQSar7KxV0sZk4-7" value="Klik Remove Camera" style="whiteSpace=wrap;strokeWidth=2;" vertex="1" parent="1">
          <mxGeometry x="559" y="505" width="207" height="54" as="geometry" />
        </mxCell>
        <mxCell id="bzr26xhQSar7KxV0sZk4-8" value="Add Camera Window" style="rhombus;strokeWidth=2;whiteSpace=wrap;" vertex="1" parent="1">
          <mxGeometry x="1102" y="609" width="202" height="202" as="geometry" />
        </mxCell>
        <mxCell id="bzr26xhQSar7KxV0sZk4-9" value="Input Nama Camera dan IP" style="whiteSpace=wrap;strokeWidth=2;" vertex="1" parent="1">
          <mxGeometry x="1077" y="954" width="251" height="54" as="geometry" />
        </mxCell>
        <mxCell id="bzr26xhQSar7KxV0sZk4-10" value="IP Valid?" style="rhombus;strokeWidth=2;whiteSpace=wrap;" vertex="1" parent="1">
          <mxGeometry x="1133" y="1154" width="113" height="113" as="geometry" />
        </mxCell>
        <mxCell id="bzr26xhQSar7KxV0sZk4-11" value="Simpan Data Camera" style="whiteSpace=wrap;strokeWidth=2;" vertex="1" parent="1">
          <mxGeometry x="1903" y="1351" width="209" height="54" as="geometry" />
        </mxCell>
        <mxCell id="bzr26xhQSar7KxV0sZk4-12" value="Tampilkan Error pada Form" style="whiteSpace=wrap;strokeWidth=2;" vertex="1" parent="1">
          <mxGeometry x="628" y="1351" width="254" height="54" as="geometry" />
        </mxCell>
        <mxCell id="bzr26xhQSar7KxV0sZk4-13" value="ROI Selector Window" style="rhombus;strokeWidth=2;whiteSpace=wrap;" vertex="1" parent="1">
          <mxGeometry x="1854" y="1467" width="203" height="203" as="geometry" />
        </mxCell>
        <mxCell id="bzr26xhQSar7KxV0sZk4-14" value="Pilih Area ROI" style="whiteSpace=wrap;strokeWidth=2;" vertex="1" parent="1">
          <mxGeometry x="1877" y="1732" width="157" height="54" as="geometry" />
        </mxCell>
        <mxCell id="bzr26xhQSar7KxV0sZk4-15" value="Simpan ROI?" style="rhombus;strokeWidth=2;whiteSpace=wrap;" vertex="1" parent="1">
          <mxGeometry x="1885" y="1848" width="141" height="141" as="geometry" />
        </mxCell>
        <mxCell id="bzr26xhQSar7KxV0sZk4-16" value="Simpan Data ROI" style="whiteSpace=wrap;strokeWidth=2;" vertex="1" parent="1">
          <mxGeometry x="1535" y="2086" width="179" height="54" as="geometry" />
        </mxCell>
        <mxCell id="bzr26xhQSar7KxV0sZk4-17" value="Bersihkan Pilihan" style="whiteSpace=wrap;strokeWidth=2;" vertex="1" parent="1">
          <mxGeometry x="1865" y="2086" width="182" height="54" as="geometry" />
        </mxCell>
        <mxCell id="bzr26xhQSar7KxV0sZk4-18" value="Detail Camera View" style="rhombus;strokeWidth=2;whiteSpace=wrap;" vertex="1" parent="1">
          <mxGeometry x="832" y="883" width="195" height="195" as="geometry" />
        </mxCell>
        <mxCell id="bzr26xhQSar7KxV0sZk4-19" value="Video ROI&#xa;Slider Timeline&#xa;Persentase Coverage&#xa;Grafik Vertikal" style="whiteSpace=wrap;strokeWidth=2;" vertex="1" parent="1">
          <mxGeometry x="1296" y="1159" width="260" height="102" as="geometry" />
        </mxCell>
        <mxCell id="bzr26xhQSar7KxV0sZk4-20" value="Klik Edit Button" style="whiteSpace=wrap;strokeWidth=2;" vertex="1" parent="1">
          <mxGeometry x="1680" y="1351" width="172" height="54" as="geometry" />
        </mxCell>
        <mxCell id="bzr26xhQSar7KxV0sZk4-21" value="Pilih Preset via Radio Button" style="whiteSpace=wrap;strokeWidth=2;" vertex="1" parent="1">
          <mxGeometry x="970" y="1339" width="260" height="78" as="geometry" />
        </mxCell>
        <mxCell id="bzr26xhQSar7KxV0sZk4-22" value="Klik Show Detail Table" style="whiteSpace=wrap;strokeWidth=2;" vertex="1" parent="1">
          <mxGeometry x="1317" y="1351" width="218" height="54" as="geometry" />
        </mxCell>
        <mxCell id="bzr26xhQSar7KxV0sZk4-23" value="Update Preset Contour dan BG Subtraction" style="whiteSpace=wrap;strokeWidth=2;" vertex="1" parent="1">
          <mxGeometry x="970" y="1529" width="260" height="78" as="geometry" />
        </mxCell>
        <mxCell id="bzr26xhQSar7KxV0sZk4-24" value="Proses Frame dengan Preset Baru" style="whiteSpace=wrap;strokeWidth=2;" vertex="1" parent="1">
          <mxGeometry x="970" y="1720" width="260" height="78" as="geometry" />
        </mxCell>
        <mxCell id="bzr26xhQSar7KxV0sZk4-25" value="Update Tampilan dan Perhitungan" style="whiteSpace=wrap;strokeWidth=2;" vertex="1" parent="1">
          <mxGeometry x="869" y="1879" width="260" height="78" as="geometry" />
        </mxCell>
        <mxCell id="bzr26xhQSar7KxV0sZk4-26" value="Detail Table Window" style="rhombus;strokeWidth=2;whiteSpace=wrap;" vertex="1" parent="1">
          <mxGeometry x="1326" y="1468" width="200" height="200" as="geometry" />
        </mxCell>
        <mxCell id="bzr26xhQSar7KxV0sZk4-27" value="Tampilkan Data PostgreSQL" style="whiteSpace=wrap;strokeWidth=2;" vertex="1" parent="1">
          <mxGeometry x="1299" y="1732" width="254" height="54" as="geometry" />
        </mxCell>
        <mxCell id="bzr26xhQSar7KxV0sZk4-28" value="Filter Data Berdasarkan Tanggal" style="whiteSpace=wrap;strokeWidth=2;" vertex="1" parent="1">
          <mxGeometry x="1296" y="1879" width="260" height="78" as="geometry" />
        </mxCell>
        <mxCell id="bzr26xhQSar7KxV0sZk4-29" value="Konfirmasi Hapus?" style="rhombus;strokeWidth=2;whiteSpace=wrap;" vertex="1" parent="1">
          <mxGeometry x="502" y="619" width="183" height="183" as="geometry" />
        </mxCell>
        <mxCell id="bzr26xhQSar7KxV0sZk4-30" value="Hapus Data Camera" style="whiteSpace=wrap;strokeWidth=2;" vertex="1" parent="1">
          <mxGeometry x="493" y="954" width="200" height="54" as="geometry" />
        </mxCell>
        <mxCell id="bzr26xhQSar7KxV0sZk4-31" value="Update Tampilan Main Window" style="whiteSpace=wrap;strokeWidth=2;" vertex="1" parent="1">
          <mxGeometry x="372" y="1171" width="260" height="78" as="geometry" />
        </mxCell>
        <mxCell id="bzr26xhQSar7KxV0sZk4-32" value="Video Processing Thread" style="whiteSpace=wrap;strokeWidth=2;" vertex="1" parent="1">
          <mxGeometry x="62" y="1183" width="233" height="54" as="geometry" />
        </mxCell>
        <mxCell id="bzr26xhQSar7KxV0sZk4-33" value="Background Subtraction" style="whiteSpace=wrap;strokeWidth=2;" vertex="1" parent="1">
          <mxGeometry x="63" y="1351" width="230" height="54" as="geometry" />
        </mxCell>
        <mxCell id="bzr26xhQSar7KxV0sZk4-34" value="Contour Detection" style="whiteSpace=wrap;strokeWidth=2;" vertex="1" parent="1">
          <mxGeometry x="83" y="1541" width="191" height="54" as="geometry" />
        </mxCell>
        <mxCell id="bzr26xhQSar7KxV0sZk4-35" value="Coverage Calculation" style="whiteSpace=wrap;strokeWidth=2;" vertex="1" parent="1">
          <mxGeometry x="72" y="1732" width="212" height="54" as="geometry" />
        </mxCell>
        <mxCell id="bzr26xhQSar7KxV0sZk4-36" value="Penyimpanan ke Database" style="whiteSpace=wrap;strokeWidth=2;" vertex="1" parent="1">
          <mxGeometry x="55" y="1891" width="247" height="54" as="geometry" />
        </mxCell>
        <mxCell id="bzr26xhQSar7KxV0sZk4-37" value="" style="curved=1;startArrow=none;endArrow=block;exitX=0.5;exitY=1;entryX=0.5;entryY=0;rounded=0;" edge="1" parent="1" source="bzr26xhQSar7KxV0sZk4-2" target="bzr26xhQSar7KxV0sZk4-3">
          <mxGeometry relative="1" as="geometry">
            <Array as="points" />
          </mxGeometry>
        </mxCell>
        <mxCell id="bzr26xhQSar7KxV0sZk4-38" value="" style="curved=1;startArrow=none;endArrow=block;exitX=1;exitY=0.86;entryX=0.5;entryY=0;rounded=0;" edge="1" parent="1" source="bzr26xhQSar7KxV0sZk4-3" target="bzr26xhQSar7KxV0sZk4-4">
          <mxGeometry relative="1" as="geometry">
            <Array as="points">
              <mxPoint x="916" y="282" />
            </Array>
          </mxGeometry>
        </mxCell>
        <mxCell id="bzr26xhQSar7KxV0sZk4-39" value="" style="curved=1;startArrow=none;endArrow=block;exitX=0.53;exitY=1;entryX=0.5;entryY=0;rounded=0;" edge="1" parent="1" source="bzr26xhQSar7KxV0sZk4-4" target="bzr26xhQSar7KxV0sZk4-5">
          <mxGeometry relative="1" as="geometry">
            <Array as="points">
              <mxPoint x="930" y="469" />
            </Array>
          </mxGeometry>
        </mxCell>
        <mxCell id="bzr26xhQSar7KxV0sZk4-40" value="" style="curved=1;startArrow=none;endArrow=block;exitX=1;exitY=0.86;entryX=0.5;entryY=0.01;rounded=0;" edge="1" parent="1" source="bzr26xhQSar7KxV0sZk4-4" target="bzr26xhQSar7KxV0sZk4-6">
          <mxGeometry relative="1" as="geometry">
            <Array as="points">
              <mxPoint x="1203" y="469" />
            </Array>
          </mxGeometry>
        </mxCell>
        <mxCell id="bzr26xhQSar7KxV0sZk4-41" value="" style="curved=1;startArrow=none;endArrow=block;exitX=0;exitY=0.9;entryX=0.5;entryY=0.01;rounded=0;" edge="1" parent="1" source="bzr26xhQSar7KxV0sZk4-4" target="bzr26xhQSar7KxV0sZk4-7">
          <mxGeometry relative="1" as="geometry">
            <Array as="points">
              <mxPoint x="663" y="469" />
            </Array>
          </mxGeometry>
        </mxCell>
        <mxCell id="bzr26xhQSar7KxV0sZk4-42" value="" style="curved=1;startArrow=none;endArrow=block;exitX=0.5;exitY=1.01;entryX=0.5;entryY=0;rounded=0;" edge="1" parent="1" source="bzr26xhQSar7KxV0sZk4-6" target="bzr26xhQSar7KxV0sZk4-8">
          <mxGeometry relative="1" as="geometry">
            <Array as="points" />
          </mxGeometry>
        </mxCell>
        <mxCell id="bzr26xhQSar7KxV0sZk4-43" value="" style="curved=1;startArrow=none;endArrow=block;exitX=0.5;exitY=1;entryX=0.5;entryY=0;rounded=0;" edge="1" parent="1" source="bzr26xhQSar7KxV0sZk4-8" target="bzr26xhQSar7KxV0sZk4-9">
          <mxGeometry relative="1" as="geometry">
            <Array as="points" />
          </mxGeometry>
        </mxCell>
        <mxCell id="bzr26xhQSar7KxV0sZk4-44" value="" style="curved=1;startArrow=none;endArrow=block;exitX=0.49;exitY=1;entryX=0.5;entryY=0;rounded=0;" edge="1" parent="1" source="bzr26xhQSar7KxV0sZk4-9" target="bzr26xhQSar7KxV0sZk4-10">
          <mxGeometry relative="1" as="geometry">
            <Array as="points">
              <mxPoint x="1190" y="1104" />
            </Array>
          </mxGeometry>
        </mxCell>
        <mxCell id="bzr26xhQSar7KxV0sZk4-45" value="Ya" style="curved=1;startArrow=none;endArrow=block;exitX=1;exitY=0.55;entryX=0.5;entryY=-0.01;rounded=0;" edge="1" parent="1" source="bzr26xhQSar7KxV0sZk4-10" target="bzr26xhQSar7KxV0sZk4-11">
          <mxGeometry relative="1" as="geometry">
            <Array as="points">
              <mxPoint x="2007" y="1302" />
            </Array>
          </mxGeometry>
        </mxCell>
        <mxCell id="bzr26xhQSar7KxV0sZk4-46" value="Tidak" style="curved=1;startArrow=none;endArrow=block;exitX=0;exitY=0.62;entryX=0.58;entryY=-0.01;rounded=0;" edge="1" parent="1" source="bzr26xhQSar7KxV0sZk4-10" target="bzr26xhQSar7KxV0sZk4-12">
          <mxGeometry relative="1" as="geometry">
            <Array as="points">
              <mxPoint x="814" y="1302" />
            </Array>
          </mxGeometry>
        </mxCell>
        <mxCell id="bzr26xhQSar7KxV0sZk4-47" value="" style="curved=1;startArrow=none;endArrow=block;exitX=0.47;exitY=-0.01;entryX=0.09;entryY=1;rounded=0;" edge="1" parent="1" source="bzr26xhQSar7KxV0sZk4-12" target="bzr26xhQSar7KxV0sZk4-9">
          <mxGeometry relative="1" as="geometry">
            <Array as="points">
              <mxPoint x="733" y="1302" />
              <mxPoint x="733" y="1104" />
            </Array>
          </mxGeometry>
        </mxCell>
        <mxCell id="bzr26xhQSar7KxV0sZk4-48" value="" style="curved=1;startArrow=none;endArrow=block;exitX=0.5;exitY=0.99;entryX=0.7;entryY=0;rounded=0;" edge="1" parent="1" source="bzr26xhQSar7KxV0sZk4-11" target="bzr26xhQSar7KxV0sZk4-13">
          <mxGeometry relative="1" as="geometry">
            <Array as="points">
              <mxPoint x="2007" y="1442" />
            </Array>
          </mxGeometry>
        </mxCell>
        <mxCell id="bzr26xhQSar7KxV0sZk4-49" value="" style="curved=1;startArrow=none;endArrow=block;exitX=0.5;exitY=1;entryX=0.5;entryY=0;rounded=0;" edge="1" parent="1" source="bzr26xhQSar7KxV0sZk4-13" target="bzr26xhQSar7KxV0sZk4-14">
          <mxGeometry relative="1" as="geometry">
            <Array as="points" />
          </mxGeometry>
        </mxCell>
        <mxCell id="bzr26xhQSar7KxV0sZk4-50" value="" style="curved=1;startArrow=none;endArrow=block;exitX=0.5;exitY=1;entryX=0.5;entryY=0;rounded=0;" edge="1" parent="1" source="bzr26xhQSar7KxV0sZk4-14" target="bzr26xhQSar7KxV0sZk4-15">
          <mxGeometry relative="1" as="geometry">
            <Array as="points" />
          </mxGeometry>
        </mxCell>
        <mxCell id="bzr26xhQSar7KxV0sZk4-51" value="Ya" style="curved=1;startArrow=none;endArrow=block;exitX=0;exitY=0.69;entryX=0.69;entryY=0;rounded=0;" edge="1" parent="1" source="bzr26xhQSar7KxV0sZk4-15" target="bzr26xhQSar7KxV0sZk4-16">
          <mxGeometry relative="1" as="geometry">
            <Array as="points">
              <mxPoint x="1706" y="2014" />
              <mxPoint x="1706" y="2050" />
            </Array>
          </mxGeometry>
        </mxCell>
        <mxCell id="bzr26xhQSar7KxV0sZk4-52" value="Tidak" style="curved=1;startArrow=none;endArrow=block;exitX=0.5;exitY=1;entryX=0.5;entryY=0;rounded=0;" edge="1" parent="1" source="bzr26xhQSar7KxV0sZk4-15" target="bzr26xhQSar7KxV0sZk4-17">
          <mxGeometry relative="1" as="geometry">
            <Array as="points" />
          </mxGeometry>
        </mxCell>
        <mxCell id="bzr26xhQSar7KxV0sZk4-53" value="" style="curved=1;startArrow=none;endArrow=block;exitX=0;exitY=0.02;entryX=0;entryY=0.92;rounded=0;" edge="1" parent="1" source="bzr26xhQSar7KxV0sZk4-17" target="bzr26xhQSar7KxV0sZk4-14">
          <mxGeometry relative="1" as="geometry">
            <Array as="points">
              <mxPoint x="1736" y="2050" />
              <mxPoint x="1736" y="1823" />
            </Array>
          </mxGeometry>
        </mxCell>
        <mxCell id="bzr26xhQSar7KxV0sZk4-54" value="" style="curved=1;startArrow=none;endArrow=block;exitX=0.43;exitY=0;entryX=1;entryY=0.56;rounded=0;" edge="1" parent="1" source="bzr26xhQSar7KxV0sZk4-16" target="bzr26xhQSar7KxV0sZk4-3">
          <mxGeometry relative="1" as="geometry">
            <Array as="points">
              <mxPoint x="1594" y="2050" />
              <mxPoint x="1594" y="282" />
            </Array>
          </mxGeometry>
        </mxCell>
        <mxCell id="bzr26xhQSar7KxV0sZk4-55" value="" style="curved=1;startArrow=none;endArrow=block;exitX=0.5;exitY=1;entryX=0.5;entryY=0;rounded=0;" edge="1" parent="1" source="bzr26xhQSar7KxV0sZk4-5" target="bzr26xhQSar7KxV0sZk4-18">
          <mxGeometry relative="1" as="geometry">
            <Array as="points" />
          </mxGeometry>
        </mxCell>
        <mxCell id="bzr26xhQSar7KxV0sZk4-56" value="" style="curved=1;startArrow=none;endArrow=block;exitX=1;exitY=0.63;entryX=0.5;entryY=0;rounded=0;" edge="1" parent="1" source="bzr26xhQSar7KxV0sZk4-18" target="bzr26xhQSar7KxV0sZk4-19">
          <mxGeometry relative="1" as="geometry">
            <Array as="points">
              <mxPoint x="1426" y="1104" />
            </Array>
          </mxGeometry>
        </mxCell>
        <mxCell id="bzr26xhQSar7KxV0sZk4-57" value="" style="curved=1;startArrow=none;endArrow=block;exitX=1;exitY=0.84;entryX=0.5;entryY=-0.01;rounded=0;" edge="1" parent="1" source="bzr26xhQSar7KxV0sZk4-19" target="bzr26xhQSar7KxV0sZk4-20">
          <mxGeometry relative="1" as="geometry">
            <Array as="points">
              <mxPoint x="1767" y="1302" />
            </Array>
          </mxGeometry>
        </mxCell>
        <mxCell id="bzr26xhQSar7KxV0sZk4-58" value="" style="curved=1;startArrow=none;endArrow=block;exitX=0;exitY=0.86;entryX=0.5;entryY=-0.01;rounded=0;" edge="1" parent="1" source="bzr26xhQSar7KxV0sZk4-19" target="bzr26xhQSar7KxV0sZk4-21">
          <mxGeometry relative="1" as="geometry">
            <Array as="points">
              <mxPoint x="1100" y="1302" />
            </Array>
          </mxGeometry>
        </mxCell>
        <mxCell id="bzr26xhQSar7KxV0sZk4-59" value="" style="curved=1;startArrow=none;endArrow=block;exitX=0.5;exitY=1;entryX=0.5;entryY=-0.01;rounded=0;" edge="1" parent="1" source="bzr26xhQSar7KxV0sZk4-19" target="bzr26xhQSar7KxV0sZk4-22">
          <mxGeometry relative="1" as="geometry">
            <Array as="points" />
          </mxGeometry>
        </mxCell>
        <mxCell id="bzr26xhQSar7KxV0sZk4-60" value="" style="curved=1;startArrow=none;endArrow=block;exitX=0.5;exitY=0.99;entryX=0;entryY=0.16;rounded=0;" edge="1" parent="1" source="bzr26xhQSar7KxV0sZk4-20" target="bzr26xhQSar7KxV0sZk4-13">
          <mxGeometry relative="1" as="geometry">
            <Array as="points">
              <mxPoint x="1767" y="1442" />
            </Array>
          </mxGeometry>
        </mxCell>
        <mxCell id="bzr26xhQSar7KxV0sZk4-61" value="" style="curved=1;startArrow=none;endArrow=block;exitX=0.5;exitY=0.99;entryX=0.5;entryY=0;rounded=0;" edge="1" parent="1" source="bzr26xhQSar7KxV0sZk4-21" target="bzr26xhQSar7KxV0sZk4-23">
          <mxGeometry relative="1" as="geometry">
            <Array as="points" />
          </mxGeometry>
        </mxCell>
        <mxCell id="bzr26xhQSar7KxV0sZk4-62" value="" style="curved=1;startArrow=none;endArrow=block;exitX=0.5;exitY=1;entryX=0.5;entryY=0;rounded=0;" edge="1" parent="1" source="bzr26xhQSar7KxV0sZk4-23" target="bzr26xhQSar7KxV0sZk4-24">
          <mxGeometry relative="1" as="geometry">
            <Array as="points" />
          </mxGeometry>
        </mxCell>
        <mxCell id="bzr26xhQSar7KxV0sZk4-63" value="" style="curved=1;startArrow=none;endArrow=block;exitX=0.5;exitY=1;entryX=0.66;entryY=0;rounded=0;" edge="1" parent="1" source="bzr26xhQSar7KxV0sZk4-24" target="bzr26xhQSar7KxV0sZk4-25">
          <mxGeometry relative="1" as="geometry">
            <Array as="points">
              <mxPoint x="1100" y="1823" />
            </Array>
          </mxGeometry>
        </mxCell>
        <mxCell id="bzr26xhQSar7KxV0sZk4-64" value="" style="curved=1;startArrow=none;endArrow=block;exitX=0.37;exitY=0;entryX=0.45;entryY=1;rounded=0;" edge="1" parent="1" source="bzr26xhQSar7KxV0sZk4-25" target="bzr26xhQSar7KxV0sZk4-18">
          <mxGeometry relative="1" as="geometry">
            <Array as="points">
              <mxPoint x="916" y="1823" />
              <mxPoint x="916" y="1104" />
            </Array>
          </mxGeometry>
        </mxCell>
        <mxCell id="bzr26xhQSar7KxV0sZk4-65" value="" style="curved=1;startArrow=none;endArrow=block;exitX=0.5;exitY=0.99;entryX=0.5;entryY=0;rounded=0;" edge="1" parent="1" source="bzr26xhQSar7KxV0sZk4-22" target="bzr26xhQSar7KxV0sZk4-26">
          <mxGeometry relative="1" as="geometry">
            <Array as="points" />
          </mxGeometry>
        </mxCell>
        <mxCell id="bzr26xhQSar7KxV0sZk4-66" value="" style="curved=1;startArrow=none;endArrow=block;exitX=0.5;exitY=1;entryX=0.5;entryY=0;rounded=0;" edge="1" parent="1" source="bzr26xhQSar7KxV0sZk4-26" target="bzr26xhQSar7KxV0sZk4-27">
          <mxGeometry relative="1" as="geometry">
            <Array as="points" />
          </mxGeometry>
        </mxCell>
        <mxCell id="bzr26xhQSar7KxV0sZk4-67" value="" style="curved=1;startArrow=none;endArrow=block;exitX=0.5;exitY=1;entryX=0.5;entryY=0;rounded=0;" edge="1" parent="1" source="bzr26xhQSar7KxV0sZk4-27" target="bzr26xhQSar7KxV0sZk4-28">
          <mxGeometry relative="1" as="geometry">
            <Array as="points" />
          </mxGeometry>
        </mxCell>
        <mxCell id="bzr26xhQSar7KxV0sZk4-68" value="" style="curved=1;startArrow=none;endArrow=block;exitX=0.5;exitY=1.01;entryX=0.78;entryY=0;rounded=0;" edge="1" parent="1" source="bzr26xhQSar7KxV0sZk4-7" target="bzr26xhQSar7KxV0sZk4-29">
          <mxGeometry relative="1" as="geometry">
            <Array as="points">
              <mxPoint x="663" y="584" />
            </Array>
          </mxGeometry>
        </mxCell>
        <mxCell id="bzr26xhQSar7KxV0sZk4-69" value="Ya" style="curved=1;startArrow=none;endArrow=block;exitX=0.5;exitY=1;entryX=0.5;entryY=0;rounded=0;" edge="1" parent="1" source="bzr26xhQSar7KxV0sZk4-29" target="bzr26xhQSar7KxV0sZk4-30">
          <mxGeometry relative="1" as="geometry">
            <Array as="points" />
          </mxGeometry>
        </mxCell>
        <mxCell id="bzr26xhQSar7KxV0sZk4-70" value="Tidak" style="curved=1;startArrow=none;endArrow=block;exitX=0.22;exitY=0;entryX=0;entryY=0.7;rounded=0;" edge="1" parent="1" source="bzr26xhQSar7KxV0sZk4-29" target="bzr26xhQSar7KxV0sZk4-3">
          <mxGeometry relative="1" as="geometry">
            <Array as="points">
              <mxPoint x="524" y="584" />
              <mxPoint x="524" y="282" />
            </Array>
          </mxGeometry>
        </mxCell>
        <mxCell id="bzr26xhQSar7KxV0sZk4-71" value="" style="curved=1;startArrow=none;endArrow=block;exitX=0.5;exitY=1;entryX=0.67;entryY=0;rounded=0;" edge="1" parent="1" source="bzr26xhQSar7KxV0sZk4-30" target="bzr26xhQSar7KxV0sZk4-31">
          <mxGeometry relative="1" as="geometry">
            <Array as="points">
              <mxPoint x="594" y="1129" />
            </Array>
          </mxGeometry>
        </mxCell>
        <mxCell id="bzr26xhQSar7KxV0sZk4-72" value="" style="curved=1;startArrow=none;endArrow=block;exitX=0.38;exitY=0;entryX=0;entryY=0.64;rounded=0;" edge="1" parent="1" source="bzr26xhQSar7KxV0sZk4-31" target="bzr26xhQSar7KxV0sZk4-3">
          <mxGeometry relative="1" as="geometry">
            <Array as="points">
              <mxPoint x="436" y="1129" />
              <mxPoint x="436" y="282" />
            </Array>
          </mxGeometry>
        </mxCell>
        <mxCell id="bzr26xhQSar7KxV0sZk4-73" value="" style="curved=1;dashed=1;dashPattern=2 3;startArrow=none;endArrow=block;exitX=0;exitY=0.58;entryX=0.5;entryY=0;rounded=0;" edge="1" parent="1" source="bzr26xhQSar7KxV0sZk4-18" target="bzr26xhQSar7KxV0sZk4-32">
          <mxGeometry relative="1" as="geometry">
            <Array as="points">
              <mxPoint x="178" y="1104" />
            </Array>
          </mxGeometry>
        </mxCell>
        <mxCell id="bzr26xhQSar7KxV0sZk4-74" value="" style="curved=1;dashed=1;dashPattern=2 3;startArrow=none;endArrow=block;exitX=0.5;exitY=1;entryX=0.5;entryY=-0.01;rounded=0;" edge="1" parent="1" source="bzr26xhQSar7KxV0sZk4-32" target="bzr26xhQSar7KxV0sZk4-33">
          <mxGeometry relative="1" as="geometry">
            <Array as="points" />
          </mxGeometry>
        </mxCell>
        <mxCell id="bzr26xhQSar7KxV0sZk4-75" value="" style="curved=1;dashed=1;dashPattern=2 3;startArrow=none;endArrow=block;exitX=0.5;exitY=0.99;entryX=0.5;entryY=0;rounded=0;" edge="1" parent="1" source="bzr26xhQSar7KxV0sZk4-33" target="bzr26xhQSar7KxV0sZk4-34">
          <mxGeometry relative="1" as="geometry">
            <Array as="points" />
          </mxGeometry>
        </mxCell>
        <mxCell id="bzr26xhQSar7KxV0sZk4-76" value="" style="curved=1;dashed=1;dashPattern=2 3;startArrow=none;endArrow=block;exitX=0.5;exitY=1;entryX=0.5;entryY=0;rounded=0;" edge="1" parent="1" source="bzr26xhQSar7KxV0sZk4-34" target="bzr26xhQSar7KxV0sZk4-35">
          <mxGeometry relative="1" as="geometry">
            <Array as="points" />
          </mxGeometry>
        </mxCell>
        <mxCell id="bzr26xhQSar7KxV0sZk4-77" value="" style="curved=1;dashed=1;dashPattern=2 3;startArrow=none;endArrow=block;exitX=0.5;exitY=1;entryX=0.5;entryY=0;rounded=0;" edge="1" parent="1" source="bzr26xhQSar7KxV0sZk4-35" target="bzr26xhQSar7KxV0sZk4-36">
          <mxGeometry relative="1" as="geometry">
            <Array as="points" />
          </mxGeometry>
        </mxCell>
        <mxCell id="bzr26xhQSar7KxV0sZk4-78" value="" style="curved=1;dashed=1;dashPattern=2 3;startArrow=none;endArrow=block;exitX=0.66;exitY=1;entryX=0;entryY=0.29;rounded=0;" edge="1" parent="1" source="bzr26xhQSar7KxV0sZk4-35" target="bzr26xhQSar7KxV0sZk4-25">
          <mxGeometry relative="1" as="geometry">
            <Array as="points">
              <mxPoint x="257" y="1823" />
            </Array>
          </mxGeometry>
        </mxCell>
      </root>
    </mxGraphModel>
  </diagram>
</mxfile>
